<?xml version="1.0" standalone="no"?>
<!DOCTYPE svg PUBLIC "-//W3C//DTD SVG 20010904//EN"
 "http://www.w3.org/TR/2001/REC-SVG-20010904/DTD/svg10.dtd">
<svg version="1.0" xmlns="http://www.w3.org/2000/svg"
 width="2048.000000pt" height="2048.000000pt" viewBox="0 0 2048.000000 2048.000000"
 preserveAspectRatio="xMidYMid meet">

<g transform="translate(0.000000,2048.000000) scale(0.100000,-0.100000)"
fill="#000000" stroke="none">
<path d="M4895 20310 c-327 -8 -394 -12 -680 -46 -496 -58 -892 -151 -1275
-301 -132 -51 -458 -208 -593 -284 -624 -353 -1185 -915 -1552 -1553 -303
-529 -484 -1106 -574 -1836 -30 -243 -40 -431 -51 -965 -11 -532 -14 -8962 -3
-9217 l6 -157 22 17 c13 9 76 60 141 113 530 428 1163 818 1796 1107 148 67
520 218 637 259 l53 18 -5 85 c-4 47 -11 340 -18 651 -14 686 -6 4131 10 4524
28 694 40 877 71 1145 54 466 153 873 307 1260 212 534 452 900 857 1306 209
208 379 350 582 484 524 347 1175 576 1904 669 296 38 508 52 1240 82 387 16
3671 23 4380 10 827 -16 1339 -39 1680 -77 862 -95 1598 -363 2175 -789 301
-223 631 -561 861 -881 252 -352 466 -827 594 -1319 193 -737 229 -1438 230
-4385 0 -2101 -22 -2996 -86 -3575 -89 -803 -325 -1498 -698 -2050 -131 -195
-268 -358 -465 -556 -335 -335 -614 -538 -1006 -729 -576 -281 -1189 -428
-2010 -480 -93 -6 -171 -13 -173 -15 -2 -2 26 -68 61 -147 247 -544 446 -1123
589 -1708 49 -201 124 -569 149 -724 l12 -78 796 5 c830 5 1003 12 1416 58
1141 126 2024 531 2745 1258 340 343 590 694 805 1131 258 526 389 1017 466
1752 21 201 22 233 28 3058 3 1570 3 4122 0 5670 -7 3008 -5 2861 -55 3255
-80 641 -244 1165 -525 1687 -331 613 -797 1118 -1396 1512 -702 462 -1505
695 -2573 748 -260 13 -10307 20 -10875 8z"/>
<path d="M7914 16329 c-993 -29 -1372 -70 -1807 -195 -223 -64 -504 -186 -680
-295 -194 -121 -429 -327 -589 -518 -357 -427 -560 -984 -632 -1731 -17 -173
-30 -403 -48 -875 -15 -374 -19 -4484 -4 -4748 7 -139 10 -157 25 -153 30 9
374 56 521 70 523 53 1101 53 1625 0 300 -30 685 -92 953 -153 75 -17 82 -18
69 -3 -440 511 -750 1156 -872 1816 -44 241 -59 411 -59 696 0 452 55 792 194
1210 292 875 880 1606 1676 2080 1036 618 2323 708 3433 241 665 -280 1244
-747 1656 -1336 378 -540 606 -1157 677 -1835 15 -147 15 -571 0 -720 -94
-905 -476 -1715 -1107 -2345 -597 -598 -1366 -978 -2205 -1090 -110 -15 -363
-35 -443 -35 -37 0 -33 -4 163 -150 578 -434 1135 -969 1587 -1527 108 -133
340 -440 393 -521 l35 -54 210 6 c706 21 1073 52 1415 122 471 97 901 293
1210 552 109 92 278 263 367 373 324 399 522 950 593 1654 18 179 26 321 51
885 16 349 23 3923 10 4534 -27 1197 -63 1591 -187 2040 -152 550 -403 954
-809 1304 -295 253 -647 427 -1100 541 -397 100 -793 135 -1825 161 -439 11
-4115 11 -4496 -1z m6473 -1235 c189 -39 318 -109 458 -249 191 -191 274 -403
262 -669 -10 -224 -85 -406 -237 -569 -249 -269 -637 -359 -982 -226 -219 85
-422 287 -506 506 -87 225 -81 482 17 698 120 264 382 467 663 514 87 14 243
12 325 -5z"/>
<path d="M10015 12710 c-883 -90 -1629 -611 -2011 -1405 -374 -779 -309 -1707
171 -2430 521 -786 1437 -1209 2369 -1094 659 81 1272 435 1671 964 260 345
419 727 482 1160 26 180 23 515 -5 700 -138 891 -725 1621 -1567 1951 -139 54
-376 116 -535 139 -136 19 -448 28 -575 15z"/>
</g>
</svg>
