<?xml version="1.0" encoding="UTF-8"?>
<svg version="1.1" xmlns="http://www.w3.org/2000/svg" width="512" height="512">
<path d="M0 0 C2.6875 0.4375 2.6875 0.4375 3.6875 1.4375 C3.7970403 3.1381084 3.84339056 4.84285846 3.86328125 6.546875 C4.24074107 25.70259672 6.22134654 38.2620674 18.6875 53.25 C29.18129465 66.23180715 32.34279713 80.03080156 31.6875 96.4375 C32.27128418 96.59831055 32.85506836 96.75912109 33.45654297 96.92480469 C36.16018863 97.67317808 38.8613152 98.43029456 41.5625 99.1875 C42.4803125 99.44015625 43.398125 99.6928125 44.34375 99.953125 C49.92437896 101.52513316 55.24947742 103.36705181 60.57983398 105.65234375 C63.84871405 106.87008015 65.48664082 106.86010408 68.6875 105.4375 C77.79130225 97.72172141 80.62352817 87.55634938 82.5 76.25 C84.85494282 62.42574974 89.93143531 48.96984501 101.6875 40.4375 C108.51505413 36.30647701 115.51239262 32.2802864 123.6875 32.4375 C125.6875 34.4375 125.6875 34.4375 126.1875 37 C125.56502223 41.27953467 123.82104767 43.53453944 121.34765625 47.0078125 C115.39278689 55.72293895 112.32310396 64.52321989 112.5 75.0625 C112.50064453 75.79984375 112.50128906 76.5371875 112.50195312 77.296875 C112.52537448 80.20112315 112.59470428 82.98530498 113.1796875 85.8359375 C115.9529902 100.04378056 114.38933146 115.55844797 106.4375 127.75 C105.53722414 128.99122192 104.62692674 130.2256395 103.6875 131.4375 C104.87844097 134.04571461 105.59062707 135.36000166 107.875 137.1875 C112.57476333 140.94731067 116.30974504 145.553327 119.85546875 150.40234375 C124.1240632 156.39546625 124.1240632 156.39546625 130.5 159.5 C143.29798024 157.46048124 152.07101249 148.26145885 159.5 138.4375 C167.31679715 128.48038934 177.57211991 121.83505255 190.1015625 119.9140625 C197.87306045 119.15215094 207.25226494 118.40049159 213.9921875 123.015625 C214.55164063 123.48484375 215.11109375 123.9540625 215.6875 124.4375 C215.68359375 126.640625 215.68359375 126.640625 214.6875 129.4375 C212.24535268 131.37988466 209.50664774 132.74148993 206.75 134.1875 C192.00853959 142.40145588 183.68016845 151.44457687 178.07495117 167.34179688 C172.95950788 181.36934011 163.82763528 191.59176518 150.6875 198.4375 C149.6975 198.7675 148.7075 199.0975 147.6875 199.4375 C147.94144531 200.45585937 148.19539063 201.47421875 148.45703125 202.5234375 C148.80609678 203.95278157 149.15363057 205.3825002 149.5 206.8125 C149.77565796 207.94389404 149.77565796 207.94389404 150.05688477 209.09814453 C151.02812657 213.20740724 151.8541642 217.28674223 152.4453125 221.46875 C152.61969849 222.68425537 152.61969849 222.68425537 152.79760742 223.92431641 C153.01248671 225.49176548 153.20861076 227.06192348 153.3840332 228.63427734 C153.87207403 232.1702863 154.20309907 234.02513819 156.97265625 236.3828125 C169.12557244 241.10408929 180.99574762 237.61524896 192.75390625 233.31640625 C206.18430935 228.43424906 219.84406631 227.86157123 233.0234375 233.98828125 C238.62755671 237.10859947 243.76472802 240.31610325 247.6875 245.4375 C248.125 248.75 248.125 248.75 247.6875 251.4375 C246.00426258 253.12073742 243.88518083 252.58635139 241.578125 252.61328125 C222.42240328 252.99074107 209.8629326 254.97134654 194.875 267.4375 C181.89319285 277.93129465 168.09419844 281.09279713 151.6875 280.4375 C151.52668945 281.02128418 151.36587891 281.60506836 151.20019531 282.20654297 C150.45182192 284.91018863 149.69470544 287.6113152 148.9375 290.3125 C148.68484375 291.2303125 148.4321875 292.148125 148.171875 293.09375 C146.59986684 298.67437896 144.75794819 303.99947742 142.47265625 309.32983398 C141.25491985 312.59871405 141.26489592 314.23664082 142.6875 317.4375 C150.40327859 326.54130225 160.56865062 329.37352817 171.875 331.25 C185.69925026 333.60494282 199.15515499 338.68143531 207.6875 350.4375 C211.81852299 357.26505413 215.8447136 364.26239262 215.6875 372.4375 C213.6875 374.4375 213.6875 374.4375 211.125 374.9375 C206.84546533 374.31502223 204.59046056 372.57104767 201.1171875 370.09765625 C192.40206105 364.14278689 183.60178011 361.07310396 173.0625 361.25 C172.32515625 361.25064453 171.5878125 361.25128906 170.828125 361.25195312 C167.92387685 361.27537448 165.13969502 361.34470428 162.2890625 361.9296875 C148.08121944 364.7029902 132.56655203 363.13933146 120.375 355.1875 C119.13377808 354.28722414 117.8993605 353.37692674 116.6875 352.4375 C114.07928539 353.62844097 112.76499834 354.34062707 110.9375 356.625 C107.17768933 361.32476333 102.571673 365.05974504 97.72265625 368.60546875 C91.72953375 372.8740632 91.72953375 372.8740632 88.625 379.25 C90.66451876 392.04798024 99.86354115 400.82101249 109.6875 408.25 C119.64461066 416.06679715 126.28994745 426.32211991 128.2109375 438.8515625 C128.97284906 446.62306045 129.72450841 456.00226494 125.109375 462.7421875 C124.64015625 463.30164063 124.1709375 463.86109375 123.6875 464.4375 C121.484375 464.43359375 121.484375 464.43359375 118.6875 463.4375 C116.74511534 460.99535268 115.38351007 458.25664774 113.9375 455.5 C105.72354412 440.75853959 96.68042313 432.43016845 80.78320312 426.82495117 C66.75565989 421.70950788 56.53323482 412.57763528 49.6875 399.4375 C49.3575 398.4475 49.0275 397.4575 48.6875 396.4375 C47.66914063 396.69144531 46.65078125 396.94539063 45.6015625 397.20703125 C44.17221843 397.55609678 42.7424998 397.90363057 41.3125 398.25 C40.18110596 398.52565796 40.18110596 398.52565796 39.02685547 398.80688477 C34.91759276 399.77812657 30.83825777 400.6041642 26.65625 401.1953125 C25.44074463 401.36969849 25.44074463 401.36969849 24.20068359 401.54760742 C22.63323452 401.76248671 21.06307652 401.95861076 19.49072266 402.1340332 C15.9547137 402.62207403 14.09986181 402.95309907 11.7421875 405.72265625 C7.02091071 417.87557244 10.50975104 429.74574762 14.80859375 441.50390625 C19.69075094 454.93430935 20.26342877 468.59406631 14.13671875 481.7734375 C11.01640053 487.37755671 7.80889675 492.51472802 2.6875 496.4375 C-0.625 496.875 -0.625 496.875 -3.3125 496.4375 C-4.99573742 494.75426258 -4.46135139 492.63518083 -4.48828125 490.328125 C-4.86574107 471.17240328 -6.84634654 458.6129326 -19.3125 443.625 C-29.80629465 430.64319285 -32.96779713 416.84419844 -32.3125 400.4375 C-32.89628418 400.27668945 -33.48006836 400.11587891 -34.08154297 399.95019531 C-36.78518863 399.20182192 -39.4863152 398.44470544 -42.1875 397.6875 C-43.1053125 397.43484375 -44.023125 397.1821875 -44.96875 396.921875 C-50.54937896 395.34986684 -55.87447742 393.50794819 -61.20483398 391.22265625 C-64.47371405 390.00491985 -66.11164082 390.01489592 -69.3125 391.4375 C-78.41630225 399.15327859 -81.24852817 409.31865062 -83.125 420.625 C-85.47994282 434.44925026 -90.55643531 447.90515499 -102.3125 456.4375 C-109.14005413 460.56852299 -116.13739262 464.5947136 -124.3125 464.4375 C-126.3125 462.4375 -126.3125 462.4375 -126.8125 459.875 C-126.19002223 455.59546533 -124.44604767 453.34046056 -121.97265625 449.8671875 C-116.01778689 441.15206105 -112.94810396 432.35178011 -113.125 421.8125 C-113.12564453 421.07515625 -113.12628906 420.3378125 -113.12695312 419.578125 C-113.15037448 416.67387685 -113.21970428 413.88969502 -113.8046875 411.0390625 C-116.5779902 396.83121944 -115.01433146 381.31655203 -107.0625 369.125 C-106.16222414 367.88377808 -105.25192674 366.6493605 -104.3125 365.4375 C-105.50344097 362.82928539 -106.21562707 361.51499834 -108.5 359.6875 C-113.19976333 355.92768933 -116.93474504 351.321673 -120.48046875 346.47265625 C-124.7490632 340.47953375 -124.7490632 340.47953375 -131.125 337.375 C-143.92298024 339.41451876 -152.69601249 348.61354115 -160.125 358.4375 C-167.94179715 368.39461066 -178.19711991 375.03994745 -190.7265625 376.9609375 C-198.49806045 377.72284906 -207.87726494 378.47450841 -214.6171875 373.859375 C-215.17664063 373.39015625 -215.73609375 372.9209375 -216.3125 372.4375 C-216.30859375 370.234375 -216.30859375 370.234375 -215.3125 367.4375 C-212.87035268 365.49511534 -210.13164774 364.13351007 -207.375 362.6875 C-192.63353959 354.47354412 -184.30516845 345.43042313 -178.69995117 329.53320312 C-173.58450788 315.50565989 -164.45263528 305.28323482 -151.3125 298.4375 C-150.3225 298.1075 -149.3325 297.7775 -148.3125 297.4375 C-148.56644531 296.41914063 -148.82039063 295.40078125 -149.08203125 294.3515625 C-149.43109678 292.92221843 -149.77863057 291.4924998 -150.125 290.0625 C-150.30877197 289.3082373 -150.49254395 288.55397461 -150.68188477 287.77685547 C-151.65312657 283.66759276 -152.4791642 279.58825777 -153.0703125 275.40625 C-153.18656982 274.59591309 -153.30282715 273.78557617 -153.42260742 272.95068359 C-153.63748671 271.38323452 -153.83361076 269.81307652 -154.0090332 268.24072266 C-154.50349462 264.65819454 -154.82040297 262.84526094 -157.66015625 260.4921875 C-169.72323605 255.6953811 -181.66763464 259.27286179 -193.375 263.55859375 C-206.81010555 268.43596584 -220.46474256 269.01543876 -233.6484375 262.88671875 C-239.25255671 259.76640053 -244.38972802 256.55889675 -248.3125 251.4375 C-248.75 248.125 -248.75 248.125 -248.3125 245.4375 C-246.62926258 243.75426258 -244.51018083 244.28864861 -242.203125 244.26171875 C-223.04740328 243.88425893 -210.4879326 241.90365346 -195.5 229.4375 C-182.51819285 218.94370535 -168.71919844 215.78220287 -152.3125 216.4375 C-152.15168945 215.85371582 -151.99087891 215.26993164 -151.82519531 214.66845703 C-151.07682192 211.96481137 -150.31970544 209.2636848 -149.5625 206.5625 C-149.18351562 205.18578125 -149.18351562 205.18578125 -148.796875 203.78125 C-147.22486684 198.20062104 -145.38294819 192.87552258 -143.09765625 187.54516602 C-141.87991985 184.27628595 -141.88989592 182.63835918 -143.3125 179.4375 C-151.02827859 170.33369775 -161.19365062 167.50147183 -172.5 165.625 C-186.32425026 163.27005718 -199.78015499 158.19356469 -208.3125 146.4375 C-212.44352299 139.60994587 -216.4697136 132.61260738 -216.3125 124.4375 C-214.3125 122.4375 -214.3125 122.4375 -211.75 121.9375 C-207.47046533 122.55997777 -205.21546056 124.30395233 -201.7421875 126.77734375 C-193.02706105 132.73221311 -184.22678011 135.80189604 -173.6875 135.625 C-172.95015625 135.62435547 -172.2128125 135.62371094 -171.453125 135.62304688 C-168.54887685 135.59962552 -165.76469502 135.53029572 -162.9140625 134.9453125 C-148.70621944 132.1720098 -133.19155203 133.73566854 -121 141.6875 C-119.75877808 142.58777586 -118.5243605 143.49807326 -117.3125 144.4375 C-114.70428539 143.24655903 -113.38999834 142.53437293 -111.5625 140.25 C-107.80268933 135.55023667 -103.196673 131.81525496 -98.34765625 128.26953125 C-92.35453375 124.0009368 -92.35453375 124.0009368 -89.25 117.625 C-91.28951876 104.82701976 -100.48854115 96.05398751 -110.3125 88.625 C-120.26961066 80.80820285 -126.91494745 70.55288009 -128.8359375 58.0234375 C-129.59784906 50.25193955 -130.34950841 40.87273506 -125.734375 34.1328125 C-125.26515625 33.57335938 -124.7959375 33.01390625 -124.3125 32.4375 C-122.109375 32.44140625 -122.109375 32.44140625 -119.3125 33.4375 C-117.37011534 35.87964732 -116.00851007 38.61835226 -114.5625 41.375 C-106.34854412 56.11646041 -97.30542313 64.44483155 -81.40820312 70.05004883 C-67.38065989 75.16549212 -57.15823482 84.29736472 -50.3125 97.4375 C-49.9825 98.4275 -49.6525 99.4175 -49.3125 100.4375 C-48.29414063 100.18355469 -47.27578125 99.92960937 -46.2265625 99.66796875 C-44.79721843 99.31890322 -43.3674998 98.97136943 -41.9375 98.625 C-41.1832373 98.44122803 -40.42897461 98.25745605 -39.65185547 98.06811523 C-35.54259276 97.09687343 -31.46325777 96.2708358 -27.28125 95.6796875 C-26.47091309 95.56343018 -25.66057617 95.44717285 -24.82568359 95.32739258 C-23.25823452 95.11251329 -21.68807652 94.91638924 -20.11572266 94.7409668 C-16.5797137 94.25292597 -14.72486181 93.92190093 -12.3671875 91.15234375 C-7.64591071 78.99942756 -11.13475104 67.12925238 -15.43359375 55.37109375 C-20.31575094 41.94069065 -20.88842877 28.28093369 -14.76171875 15.1015625 C-6.8576154 0.90572279 -6.8576154 0.90572279 0 0 Z M-60.3125 141.4375 C-61.25480469 141.953125 -62.19710937 142.46875 -63.16796875 143 C-69.38271312 146.54577663 -74.86017288 150.82136702 -80.3125 155.4375 C-81.53259766 156.43716797 -81.53259766 156.43716797 -82.77734375 157.45703125 C-106.27495026 177.46526175 -120.33473791 208.12913596 -123.03125 238.5703125 C-123.1240625 239.84648437 -123.216875 241.12265625 -123.3125 242.4375 C-123.3846875 243.42492187 -123.456875 244.41234375 -123.53125 245.4296875 C-124.28568367 267.6226112 -117.93714346 289.20651453 -107.3125 308.4375 C-106.79558594 309.38496094 -106.27867187 310.33242188 -105.74609375 311.30859375 C-102.19363263 317.51330104 -97.9254763 322.98890138 -93.3125 328.4375 C-92.64605469 329.25089844 -91.97960937 330.06429687 -91.29296875 330.90234375 C-71.27819466 354.40763503 -40.63665822 368.42992695 -10.1953125 371.16015625 C14.56932509 372.92905894 38.0716481 367.57958668 59.6875 355.4375 C60.62980469 354.921875 61.57210937 354.40625 62.54296875 353.875 C68.75771312 350.32922337 74.23517288 346.05363298 79.6875 341.4375 C80.50089844 340.77105469 81.31429687 340.10460937 82.15234375 339.41796875 C105.64995026 319.40973825 119.70973791 288.74586404 122.40625 258.3046875 C122.4990625 257.02851563 122.591875 255.75234375 122.6875 254.4375 C122.7596875 253.45007813 122.831875 252.46265625 122.90625 251.4453125 C123.66068367 229.2523888 117.31214346 207.66848547 106.6875 188.4375 C106.17058594 187.49003906 105.65367187 186.54257813 105.12109375 185.56640625 C101.56863263 179.36169896 97.3004763 173.88609862 92.6875 168.4375 C92.02105469 167.62410156 91.35460937 166.81070313 90.66796875 165.97265625 C70.681228 142.50028724 40.0478344 128.43914809 9.640625 125.71484375 C-15.20870472 123.97146192 -38.62952507 129.25770887 -60.3125 141.4375 Z " fill="#000000" transform="translate(256.3125,7.5625)"/>
<path d="M0 0 C31.33019832 -0.7197478 60.74458015 10.70395571 83.52734375 32.1640625 C89.92206111 38.31659034 95.62610479 44.5086771 100.265625 52.12109375 C101.24789062 53.70664063 101.24789062 53.70664063 102.25 55.32421875 C112.0765157 71.58759968 118.54686106 89.99572273 119.265625 109.12109375 C119.30558594 110.075 119.34554687 111.02890625 119.38671875 112.01171875 C120.05076774 143.72982346 109.01073586 173.25186204 87.22265625 196.3828125 C81.07012841 202.77752986 74.87804165 208.48157354 67.265625 213.12109375 C66.20859375 213.7759375 65.1515625 214.43078125 64.0625 215.10546875 C36.58654154 231.69649527 4.70416303 236.12323918 -26.44726562 228.453125 C-44.00213694 223.61305107 -60.35321812 215.61542875 -73.734375 203.12109375 C-74.26401855 202.62706055 -74.79366211 202.13302734 -75.33935547 201.62402344 C-82.34968877 195.02157138 -88.69677399 188.3866721 -93.734375 180.12109375 C-94.38921875 179.0640625 -95.0440625 178.00703125 -95.71875 176.91796875 C-105.7827831 160.26148449 -112.0630478 141.67714703 -112.734375 122.12109375 C-112.77433594 121.13367188 -112.81429687 120.14625 -112.85546875 119.12890625 C-113.50525065 87.86293009 -102.12001111 58.59882999 -80.6875 35.8515625 C-74.53404953 29.46203913 -68.34422915 23.75905219 -60.734375 19.12109375 C-59.67734375 18.46625 -58.6203125 17.81140625 -57.53125 17.13671875 C-39.72235043 6.3763835 -20.74515885 0.91871418 0 0 Z " fill="#000000" transform="translate(252.734375,139.87890625)"/>
</svg>
